<svg width="38" height="45" viewBox="0 0 38 45" fill="none" xmlns="http://www.w3.org/2000/svg">
<path d="M24.4995 42.3862C24.4995 42.983 24.2625 43.5553 23.8405 43.9772C23.4185 44.3992 22.8463 44.6362 22.2495 44.6362H16.2495C15.6528 44.6362 15.0805 44.3992 14.6585 43.9772C14.2366 43.5553 13.9995 42.983 13.9995 42.3862C13.9995 41.7895 14.2366 41.2172 14.6585 40.7952C15.0805 40.3733 15.6528 40.1362 16.2495 40.1362H22.2495C22.8463 40.1362 23.4185 40.3733 23.8405 40.7952C24.2625 41.2172 24.4995 41.7895 24.4995 42.3862ZM19.2495 21.3862C19.8429 21.3862 20.4229 21.2103 20.9162 20.8806C21.4096 20.551 21.7941 20.0825 22.0212 19.5343C22.2482 18.9861 22.3076 18.3829 22.1919 17.801C22.0761 17.219 21.7904 16.6845 21.3708 16.2649C20.9513 15.8454 20.4167 15.5596 19.8348 15.4439C19.2528 15.3281 18.6496 15.3875 18.1015 15.6146C17.5533 15.8417 17.0847 16.2262 16.7551 16.7195C16.4255 17.2129 16.2495 17.7929 16.2495 18.3862C16.2495 19.1819 16.5656 19.9449 17.1282 20.5076C17.6908 21.0702 18.4539 21.3862 19.2495 21.3862Z" fill="#479C6E"/>
<path d="M37.9114 29.0175L35.5939 39.4481C35.4575 40.0707 35.164 40.6479 34.7412 41.1249C34.3185 41.6018 33.7806 41.9625 33.1789 42.1725C32.7759 42.3141 32.3517 42.3864 31.9245 42.3863C31.0883 42.3856 30.2767 42.1036 29.6202 41.5856L24.7189 37.8863H13.7802L8.87891 41.5875C8.22215 42.1048 7.41052 42.3861 6.57453 42.3863C6.14723 42.3858 5.72309 42.3129 5.32016 42.1706C4.71846 41.9606 4.18059 41.5999 3.75783 41.123C3.33508 40.6461 3.04152 40.0688 2.90516 39.4463L0.587657 29.0175C0.464781 28.4578 0.471166 27.8774 0.606327 27.3205C0.741489 26.7636 1.00187 26.2449 1.36766 25.8038L6.58578 19.5413C6.78541 17.1949 7.33198 14.891 8.20766 12.705C10.6958 6.47064 15.1452 2.56126 16.9527 1.17001C17.61 0.660678 18.418 0.384277 19.2495 0.384277C20.0811 0.384277 20.8891 0.660678 21.5464 1.17001C23.3464 2.56126 27.8033 6.47064 30.2914 12.705C31.1671 14.891 31.7137 17.1949 31.9133 19.5413L37.1314 25.8038C37.4972 26.2449 37.7576 26.7636 37.8927 27.3205C38.0279 27.8774 38.0343 28.4578 37.9114 29.0175ZM14.3352 33.3863H24.1639C27.822 26.6925 28.4764 20.3025 26.112 14.3738C24.1995 9.57376 20.787 6.36751 19.2495 5.09626C17.712 6.36751 14.2995 9.57376 12.387 14.3738C10.0208 20.3025 10.677 26.6925 14.3352 33.3863ZM10.107 35.0213C8.61102 32.2407 7.54157 29.2511 6.93453 26.1525L5.05953 28.4025L7.04328 37.335L10.107 35.0213ZM33.4377 28.4006L31.5627 26.1506C30.9556 29.2492 29.8862 32.2389 28.3902 35.0194L31.452 37.3313L33.4377 28.4006Z" fill="#9359F3"/>
</svg>
